<?xml version="1.0" standalone="no"?>
<!DOCTYPE svg PUBLIC "-//W3C//DTD SVG 20010904//EN"
 "http://www.w3.org/TR/2001/REC-SVG-20010904/DTD/svg10.dtd">
<svg version="1.0" xmlns="http://www.w3.org/2000/svg"
 width="512.000000pt" height="512.000000pt" viewBox="0 0 512.000000 512.000000"
 preserveAspectRatio="xMidYMid meet">

<g transform="translate(0.000000,512.000000) scale(0.100000,-0.100000)"
fill="#000000" stroke="none">
<path d="M2360 3834 c-632 -58 -1288 -339 -1902 -817 -222 -173 -441 -380
-453 -430 -4 -15 -4 -39 -1 -53 20 -76 413 -418 716 -621 173 -116 264 -170
434 -258 349 -181 694 -296 1056 -352 161 -25 539 -25 700 0 585 90 1161 349
1712 769 140 106 338 279 425 370 64 68 80 100 69 144 -20 77 -412 417 -716
621 -173 116 -264 170 -434 258 -344 179 -697 297 -1046 350 -101 15 -463 28
-560 19z m450 -332 c183 -55 307 -128 436 -256 129 -130 205 -260 260 -446 27
-95 27 -375 0 -475 -67 -240 -206 -438 -400 -569 -95 -64 -163 -96 -285 -133
-79 -25 -100 -27 -261 -27 -163 0 -181 2 -265 28 -233 71 -418 207 -549 404
-55 84 -88 155 -123 271 -24 78 -27 102 -27 251 -1 180 11 250 64 382 83 205
269 403 475 506 53 26 190 71 251 82 86 16 350 5 424 -18z m-1116 -115 c-149
-156 -249 -330 -299 -522 -106 -410 4 -827 301 -1135 l86 -89 -78 28 c-342
125 -650 291 -972 524 -188 136 -442 347 -442 368 0 10 170 159 280 246 349
274 704 479 1075 622 72 28 132 50 134 51 2 0 -37 -42 -85 -93z m1856 13 c309
-123 684 -345 1000 -593 113 -89 280 -236 280 -247 0 -5 -45 -48 -99 -96 -382
-332 -843 -616 -1246 -769 -65 -25 -123 -45 -128 -45 -6 0 27 38 72 85 291
304 401 724 296 1130 -50 192 -150 366 -299 522 l-89 94 79 -30 c43 -16 104
-39 134 -51z"/>
<path d="M2422 3175 c-298 -67 -506 -345 -489 -651 9 -159 70 -294 183 -408
73 -72 145 -118 246 -154 64 -23 88 -26 198 -26 110 0 134 3 198 26 101 36
173 82 246 154 72 73 118 145 154 246 23 64 26 88 26 198 0 110 -3 134 -26
198 -36 101 -82 173 -154 246 -119 118 -252 176 -419 182 -64 2 -123 -1 -163
-11z"/>
</g>
</svg>
